<?xml version="1.0" encoding="utf-8"?>
<!-- Generator: Adobe Illustrator 22.1.0, SVG Export Plug-In . SVG Version: 6.00 Build 0)  -->
<svg version="1.1" id="Layer_1" xmlns="http://www.w3.org/2000/svg" xmlns:xlink="http://www.w3.org/1999/xlink" x="0px" y="0px"
	 viewBox="0 0 875 304" enable-background="new 0 0 875 304" xml:space="preserve">
<g>
	<g>
		<path d="M352.780273,265.827789c7.658722,5.174866,18.629272,7.765839,24.225189,7.765839
			c8.900757,0,19.871277-3.882904,19.871277-15.745758c0-20.056808-45.752594-18.336655-45.752594-49.178574
			c0-22.86203,16.359741-33.861206,37.26593-33.861206c9.114868,0,16.56665,1.948547,24.218201,4.311188l-1.648956,17.687164
			c-4.353882-2.805145-15.945404-5.603104-20.499268-5.603104c-9.935638,0-18.629456,4.311188-18.629456,13.376068
			c0,22.42659,45.745392,15.952728,45.745392,51.112869c0,23.51152-18.00824,34.296585-36.851837,34.296585
			c-9.928436,0-20.071014-1.08493-28.978973-6.045624L352.780273,265.827789z"/>
		<path d="M510.74054,221.824707c0-16.816406-9.528748-30.620621-26.295166-30.620621
			c-19.043335,0-26.90921,16.388062-28.358185,30.620621H510.74054z M523.367188,282.86615
			c-7.451782,2.805145-15.938446,7.123413-33.333069,7.123413c-37.472839,0-54.653351-23.732788-54.653351-59.5354
			c0-32.569275,19.664368-55.645416,49.485657-55.645416c35.195953,0,46.573334,26.744965,46.573334,62.119293h-75.35257
			c0,21.78421,16.359741,36.66629,34.782074,36.66629c12.833588,0,27.744141-6.902161,32.497925-11.006317V282.86615z"/>
		<path d="M556.696777,177.399002h18.222351v17.03772h0.406921c5.182068-11.434601,16.359497-19.628632,27.53717-19.628632
			c5.802856,0,8.700806,0.649551,12.84082,1.513229v18.115402c-3.518982-1.513229-7.451782-1.941467-10.770813-1.941467
			c-17.394592,0-28.772034,17.251831-28.772034,44.860367v50.042267h-19.464417V177.399002z"/>
		<path d="M637.846558,177.395416h19.464417v109.998871h-19.464417V177.395416z M658.552979,152.806152h-21.941284v-22.86203
			h21.941284V152.806152z"/>
		<path d="M762.685242,221.824707c0-16.816406-9.528748-30.620621-26.295166-30.620621
			c-19.043335,0-26.90918,16.388062-28.358154,30.620621H762.685242z M775.31189,282.86615
			c-7.451782,2.805145-15.938477,7.123413-33.333069,7.123413c-37.472839,0-54.65332-23.732788-54.65332-59.5354
			c0-32.569275,19.664307-55.645416,49.478455-55.645416c35.203125,0,46.580566,26.744965,46.580566,62.119293h-75.3526
			c0,21.78421,16.352539,36.66629,34.782043,36.66629c12.833557,0,27.736938-6.902161,32.497925-11.006317V282.86615z"/>
		<path d="M802.018982,265.827789c7.658691,5.174866,18.636414,7.765839,24.225159,7.765839
			c8.900757,0,19.878479-3.882904,19.878479-15.745758c0-20.056808-45.759766-18.336655-45.759766-49.178574
			c0-22.86203,16.352539-33.861206,37.26593-33.861206c9.114868,0,16.56665,1.948547,24.218201,4.311188l-1.648987,17.687164
			c-4.34668-2.805145-15.938232-5.603104-20.492065-5.603104c-9.94281,0-18.636658,4.311188-18.636658,13.376068
			c0,22.42659,45.752563,15.952728,45.752563,51.112869c0,23.51152-18.008179,34.296585-36.851807,34.296585
			c-9.935608,0-20.085388-1.08493-28.986145-6.045624L802.018982,265.827789z"/>
	</g>
	<g display="none">
		<polygon display="inline" points="907.135559,170.763077 907.135559,174.203522 897.763672,174.203522 897.763672,199.749252 
			893.952148,199.749252 893.952148,174.203522 884.587463,174.203522 884.587463,170.763077 		"/>
		<path display="inline" d="M910.493103,170.763077h5.395996l8.001343,24.496582l7.944275-24.496582h5.360474v28.986176h-3.604553
			v-17.109055c0-0.585297,0.007202-1.570297,0.042664-2.940628c0.028564-1.370453,0.028564-2.833694,0.028564-4.396912
			l-7.937134,24.446594h-3.732849l-8.015747-24.446594v0.885132c0,0.713699,0.028564,1.784424,0.06427,3.247665
			c0.057068,1.448975,0.06427,2.526657,0.06427,3.204742v17.109055h-3.611572V170.763077z"/>
	</g>
	<g>
		<path d="M277.254089,43.181328L99.50444,262.586548H44.201653L221.944214,43.181328H277.254089z M133.365631,262.586548
			L314.45575,39.141331V15.765458H18.306089v27.415871h169.776825L7,266.690735v23.311676h310.967499v-27.415863H133.365631"/>
		<path d="M298.340607,0.423401"/>
		<path d="M298.335388-1.282277"/>
	</g>
</g>
<g>
</g>
<g>
</g>
<g>
</g>
<g>
</g>
<g>
</g>
<g>
</g>
<g>
</g>
<g>
</g>
<g>
</g>
<g>
</g>
<g>
</g>
<g>
</g>
<g>
</g>
<g>
</g>
<g>
</g>
</svg>
